<?xml version="1.0" encoding="UTF-8"?>
<svg xmlns="http://www.w3.org/2000/svg" xmlns:xlink="http://www.w3.org/1999/xlink" version="1.1" id="Livello_1" x="0px" y="0px" width="841.89px" height="595.28px" viewBox="0 0 841.89 595.28" enable-background="new 0 0 841.89 595.28" xml:space="preserve" style="background: transparent;">

<g>
	<path d="M710.217,297.947c-0.034,0-0.075-0.006-0.104-0.041c-10.146-9.355-22.138-16.234-35.666-20.439   c-10.533-3.291-21.954-4.957-33.946-4.957c-16.813,0-28.892,3.346-29.024,3.387c-0.056,0.014-0.122-0.015-0.165-0.076   c-0.04-0.054-0.04-0.136,0.014-0.187l8.776-10.23c0.035-0.019,0.063-0.038,0.104-0.038c6.91-1.063,13.684-1.592,20.113-1.592   c11.787,0,22.817,1.782,32.744,5.302c7.972,2.812,15.25,6.723,21.657,11.654c5.713,4.38,9.666,8.765,11.965,11.661   c2.349,2.961,3.517,5.026,3.663,5.29c0.015,0.025,0.033,0.066,0.033,0.107C710.382,297.871,710.307,297.947,710.217,297.947   L710.217,297.947z M640.501,272.194c12.019,0,23.467,1.665,34.043,4.956c13.21,4.117,24.968,10.766,34.986,19.786   c-1.53-2.423-6.245-9.225-15.023-15.958c-6.38-4.894-13.63-8.804-21.557-11.607c-9.896-3.498-20.886-5.274-32.631-5.274   c-6.4,0-13.134,0.523-20.017,1.57l-8.399,9.79C614.353,274.829,625.573,272.194,640.501,272.194z"/>
	<path d="M532.742,298.664h-34.629c-0.078,0-0.145-0.063-0.159-0.131c-0.014-0.07,0.029-0.151,0.099-0.18l122.14-48.821   c0.054-0.029,0.11-0.022,0.163,0.019c0.043,0.035,0.063,0.095,0.043,0.159c-2.493,11.096-12.914,22.842-21.219,30.738   c-8.989,8.55-17.5,14.547-17.583,14.604c-0.064,0.038-0.163,0.038-0.213-0.022c-0.055-0.063-0.055-0.159,0-0.222   c9.191-10.332,15.43-18.152,18.555-23.248c1.928-3.139,2.025-4.268,1.988-4.591l-69.109,31.689   C532.788,298.657,532.761,298.664,532.742,298.664z M498.947,298.34h33.76l69.233-31.737c0.063-0.025,0.134-0.013,0.181,0.035   c0.262,0.241,1.852,3.104-19.522,27.282c2.644-1.941,9.353-7.063,16.361-13.712c8.193-7.792,18.458-19.333,21.066-30.279   L498.947,298.34z"/>
	<path d="M482.067,274.052c-0.03,0-0.063-0.014-0.098-0.035l-3.525-2.477c-0.033-0.029-0.055-0.063-0.07-0.117   c0-0.042,0.016-0.083,0.037-0.124c0.295-0.371,0.517-0.799,0.641-1.252c0.521-1.833-0.414-3.71-2.074-4.187   c-0.254-0.069-0.516-0.11-0.791-0.11c-1.197,0-2.341,0.758-2.92,1.921c-0.012,0.036-0.054,0.077-0.109,0.089   c-0.049,0.006-0.096,0-0.124-0.029l-4.322-3.041c-0.042-0.022-0.069-0.07-0.069-0.117c0-0.048,0.015-0.095,0.054-0.13l23.19-19.484   c1.621-1.17,7.529-4.046,18.234-6.608c1.824-0.488,44.919-11.896,46.708-11.896c0.167,0,0.193,0.083,0.214,0.136   c0.035,0.152-0.117,0.222-0.214,0.264c-1.955,0.888-39.171,14.111-40.767,14.676c-0.049,0.013-4.222,1.335-10.445,5.975   c-5.748,4.291-14.476,12.365-23.413,26.464c-0.021,0.041-0.063,0.069-0.101,0.069C482.08,274.039,482.08,274.052,482.067,274.052z    M478.761,271.369l3.259,2.283c8.942-14.064,17.663-22.125,23.418-26.419c6.272-4.662,10.472-5.997,10.526-6.006   c0.344-0.13,32.878-11.674,39.599-14.223c-7.564,1.639-44.952,11.553-45.368,11.664c-10.649,2.546-16.506,5.391-18.11,6.539   l-23.021,19.344l3.999,2.81c0.661-1.183,1.872-1.935,3.125-1.935c0.296,0,0.592,0.042,0.881,0.13   c1.838,0.523,2.865,2.575,2.286,4.573C479.224,270.583,479.037,270.998,478.761,271.369z"/>
	<path d="M438.49,245.729L438.49,245.729c-4.6,0-9.837-2.905-9.9-2.924l-46.152-26.451c-3.787-2.059-3.67-2.499-3.614-2.718   c0.062-0.263,0.44-0.298,0.724-0.298c1.046,0,3.097,0.558,3.187,0.58l64.884,15.948c0.066,0.016,0.114,0.063,0.122,0.117   c0.017,0.063-0.008,0.133-0.062,0.158c-4.228,3.057-5.28,8.978-5.46,10.233c4.174-1.202,50.255-14.403,51.618-14.403   c0.14,0,0.179,0.095,0.189,0.124c0.004,0.041,0.018,0.136-0.105,0.206c-7.106,4.18-52.896,19.056-53.366,19.202   C439.92,245.66,439.226,245.729,438.49,245.729z M379.547,213.656c-0.366,0-0.414,0.077-0.414,0.077   c-0.006,0.06,0.124,0.523,3.457,2.346l46.167,26.445c0.047,0.025,5.229,2.893,9.733,2.893l0,0c0.714,0,1.374-0.07,1.983-0.222   c0.425-0.137,43.164-14.017,52.441-18.698c-5.644,1.364-34.874,9.686-50.846,14.252c-0.049,0.012-0.104,0.012-0.146-0.022   c-0.041-0.035-0.059-0.083-0.059-0.146c0.011-0.066,0.754-6.916,5.354-10.474l-64.568-15.878   C382.631,214.214,380.551,213.656,379.547,213.656z"/>
	<path fill="#FFFFFF" d="M125.559,298.27l7.29,0.112c0,0,5.047-6.961,13.745-12.666c0,0,8.688-5.357,1.791-2.991   C148.384,282.725,133.083,287.986,125.559,298.27"/>
	<path d="M220.452,301.003L220.452,301.003l-7.849-0.199c-0.055,0-0.11-0.025-0.137-0.082c-0.027-0.035-0.027-0.095,0-0.136   l12.053-23.947c0.022-0.041,0.063-0.066,0.118-0.079c0.042-0.016,0.097,0,0.125,0.026l6.518,4.909   c0.063,0.047,0.083,0.136,0.048,0.213l-10.739,19.213C220.562,300.969,220.513,301.003,220.452,301.003z M212.863,300.503   l7.492,0.165l10.629-18.996l-6.265-4.716L212.863,300.503z"/>
	<path d="M188.976,300.515c-0.159,0-0.315-0.069-0.847-1.144c-0.992-1.802-4.247-6.333-9.39-10.497   c-3.781-3.051-8.006-5.474-12.575-7.221c-5.696-2.182-11.947-3.292-18.563-3.292c-1.367,0-2.781,0.054-4.186,0.152   c-0.073,0.006-0.139-0.035-0.162-0.111c-0.028-0.063-0.01-0.139,0.047-0.177c0.031-0.028,3.422-2.781,10.443-5.502   c6.616-2.553,17.954-5.623,34.081-5.474c-0.005,0,0.283-0.013,0.821-0.013c4.281,0,26.062,0.394,33.711,8.125   c0.049,0.047,0.062,0.123,0.034,0.177l-3.304,6.513c-0.027,0.042-0.055,0.077-0.104,0.083c-0.042,0.012-0.088,0-0.13-0.022   c-0.028-0.019-2.382-1.77-7.489-3.504c-4.736-1.595-12.846-3.511-24.646-3.511c-4.482,0-9.228,0.276-14.13,0.812   c1.226,0.545,4.251,2.052,7.355,4.779c3.697,3.247,8.276,8.949,9.061,17.632c0.02,0.142,0.054,0.349,0.083,0.571   c0.151,0.942,0.192,1.388,0.054,1.553C189.099,300.503,189.032,300.515,188.976,300.515z M147.602,278.044   c6.658,0,12.949,1.117,18.693,3.312c4.591,1.756,8.854,4.208,12.657,7.278c5.184,4.192,8.461,8.771,9.459,10.6   c0.255,0.499,0.399,0.736,0.489,0.869c0-0.292-0.083-0.84-0.138-1.163c-0.034-0.241-0.061-0.441-0.083-0.586   c-0.771-8.591-5.292-14.207-8.948-17.417c-3.964-3.491-7.786-4.956-7.827-4.969c-0.062-0.028-0.115-0.098-0.097-0.168   c0.006-0.073,0.064-0.136,0.137-0.136c5.129-0.592,10.092-0.881,14.774-0.881c11.854,0,20.006,1.915,24.763,3.526   c4.412,1.499,6.808,3.013,7.415,3.443l3.152-6.253c-7.634-7.557-29.153-7.944-33.401-7.944c-0.538,0-0.821,0.013-0.821,0.013   c-0.371-0.013-0.722-0.013-1.081-0.013c-8.549,0-21.196,0.948-32.868,5.464c-5.583,2.15-8.86,4.338-9.948,5.138   C145.161,278.079,146.397,278.044,147.602,278.044z"/>
	<path d="M473.889,304.949c-0.654,0-1.254-1.604-2.41-4.944c-1.68-4.776-4.2-11.991-8.207-15   c-0.757-0.446-77.323-45.719-85.102-48.018c-0.18-0.054-4.027-1.465-4.937-2.934c-0.86-1.389-1.728-1.912-1.742-1.918   c-0.014-0.006-0.027-0.029-0.041-0.041l-11.993-15.387c-0.234-0.124-2.051-1.069-13.947-7.338l-38.91-22.237   c-0.075-0.041-0.096-0.136-0.062-0.206c0.041-0.076,0.145-0.111,0.212-0.07l88.739,43.741l62.205,35.324   c0.434,0.241,10.299,6.168,10.836,9.796c0.153,0.951,0.84,4.132,1.708,8.153c2.478,11.47,4.323,20.286,3.868,20.968   c-0.027,0.069-0.097,0.092-0.139,0.092C473.948,304.949,473.928,304.949,473.889,304.949z M371.684,231.872   c0.166,0.104,0.992,0.675,1.818,2.004c0.861,1.376,4.729,2.793,4.764,2.81c7.807,2.312,84.407,47.597,85.187,48.05   c4.087,3.085,6.641,10.342,8.314,15.152c0.798,2.286,1.624,4.627,2.095,4.73c0.28-1.094-2.355-13.328-3.939-20.682   c-0.873-4.024-1.55-7.211-1.692-8.169c-0.524-3.475-10.576-9.507-10.685-9.577l-62.206-35.308l-84.017-41.422l34.34,19.632   c13.065,6.891,13.94,7.326,13.975,7.345c0.02,0.006,0.041,0.022,0.055,0.041L371.684,231.872z"/>
	<path d="M257.626,297.947c-0.057,0-0.098-0.019-0.131-0.061c-0.062-0.076-5.852-7.613-18.43-18.107   c-11.593-9.678-31.516-23.927-60.513-36.817l-25.571-12.196c-0.155-0.042-1.755-0.622-2.31-1.998   c-0.331-0.812-0.227-1.748,0.32-2.765c0.12-0.2,11.996-19.884,24.887-32.543c0.066-0.06,6.241-6.307,15.603-13.747   c8.626-6.856,21.823-16.173,35.605-21.548c0.068-0.029,0.165,0,0.208,0.076c0.027,0.076,0,0.159-0.056,0.2   c-0.234,0.165-23.227,16.43-37.746,31.417c-0.076,0.07-6.162,5.766-12.093,13.288c-5.421,6.885-11.809,16.744-11.527,24.688h65.332   c0.096,0,8.969,0.289,15.392,4.57l71.452,52.568c0.049,0.029,0.09,0.083,0.09,0.153c0,0.083-0.083,0.149-0.166,0.165   c-0.02,0-0.061-0.015-0.082-0.029l-70.516-44.698c-0.049-0.035-4.819-3.092-10.677-3.327l-50.723,0.47   c2.794,1.433,15.13,7.884,28.995,17.422c9.225,6.342,17.321,12.786,24.047,19.167c8.419,7.979,14.725,15.856,18.746,23.414   c0.041,0.082,0.013,0.18-0.055,0.222C257.674,297.94,257.653,297.947,257.626,297.947z M225.972,158.956   c-13.3,5.429-25.94,14.366-34.297,21.009c-9.344,7.428-15.51,13.652-15.57,13.719c-12.866,12.628-24.718,32.274-24.831,32.477   c-0.503,0.929-0.603,1.76-0.31,2.483c0.522,1.288,2.113,1.817,2.13,1.817c0.011,0.016,0.018,0.016,0.018,0.016l25.579,12.189   c29.023,12.911,48.974,27.175,60.595,36.878c9.487,7.906,15.118,14.157,17.354,16.786c-4.026-7.063-10.015-14.388-17.836-21.796   c-6.719-6.368-14.802-12.806-24.013-19.145c-15.69-10.789-29.411-17.622-29.547-17.698c-0.069-0.029-0.096-0.105-0.083-0.166   c0.013-0.076,0.069-0.139,0.151-0.139l51.385-0.476c5.96,0.241,10.808,3.339,10.849,3.375l66.599,42.221l-67.742-49.842   c-6.333-4.221-15.118-4.515-15.199-4.515h-65.494c-0.083,0-0.156-0.063-0.156-0.146c-0.168-3.57,0.979-7.82,3.416-12.618   c1.934-3.828,4.688-8.014,8.185-12.44c5.943-7.544,12.054-13.259,12.123-13.313C201.994,176.474,221.243,162.362,225.972,158.956z"/>
	<path d="M153.406,207.593c-0.042,0-0.074-0.006-0.108-0.029c-0.055-0.054-0.072-0.152-0.03-0.212l10.281-15.539l20.692-27.618   c0.117-0.152,12.46-14.527,15.889-18.767c3.427-4.256,27.261-29.039,27.495-29.292c7.448-7.222,25.885-22.684,26.062-22.835   c0.951-0.695,1.942-1.034,2.949-1.034c2.126,0,3.606,1.516,3.675,1.584c0,0,0,0.008,0,0.015c2.465,3.399,22.993,14.773,23.2,14.892   c4.522,1.96,6.61,4.858,6.623,4.88c2.541,2.897,1.115,7.158,1.101,7.199c-0.007,0.012-0.007,0.022-0.014,0.028l-9.556,17.103   c-0.604,0.866-1.115,1.307-1.5,1.307c-0.076,0-0.13-0.021-0.172-0.042c-6.864,0.42-17.734,2.617-30.588,10.671   c-7.709,4.833-12.543,9.555-12.59,9.611c-0.056,0.055-0.145,0.055-0.214,0c-0.063-0.057-0.083-0.146-0.027-0.209   c7.682-11.331,18.05-17.609,25.402-20.872c7.505-3.331,13.48-4.302,14.196-4.405l8.5-12.371c1.488-2.474,0.53-5.321,0.517-5.363   c-0.193-0.469-0.537-0.71-1.053-0.71c-1.011,0-2.265,0.902-2.278,0.909c-0.013,0.008-0.02,0.021-0.02,0.021l-10.038,5.245   c-8.859,4.262-41.614,23.711-41.945,23.903c-13.694,8.744-22.36,15.118-22.456,15.172c-3.953,2.781-14.81,4.639-15.793,4.804   l-38.08,41.904C153.494,207.577,153.447,207.593,153.406,207.593z M256.636,92.583c-0.938,0-1.859,0.333-2.755,0.964   c-0.165,0.152-18.587,15.605-26.022,22.813c-0.248,0.248-24.053,25.018-27.481,29.274c-3.429,4.251-15.779,18.614-15.897,18.757   l-20.673,27.599l-9.118,13.792l36.724-40.405c0.027-0.028,0.056-0.042,0.089-0.054c0.118-0.016,11.725-1.928,15.71-4.75   c0.083-0.057,8.764-6.438,22.477-15.187c0.331-0.193,33.099-19.648,41.967-23.91l10.024-5.252c0.124-0.089,1.376-0.956,2.457-0.956   c0.641,0,1.116,0.315,1.356,0.913c0.041,0.131,1.026,3.043-0.551,5.646l-8.55,12.439c-0.027,0.036-0.054,0.062-0.109,0.062   c-0.062,0.016-6.266,0.881-14.189,4.406c-7.042,3.125-16.873,9.026-24.405,19.523c1.852-1.665,5.935-5.109,11.54-8.632   c7.145-4.474,18.284-9.968,30.785-10.709c0.041,0,0.082,0,0.117,0.025c-0.006,0,0.007,0.016,0.035,0.016   c0.095,0,0.482-0.097,1.225-1.172l9.541-17.066c0.098-0.262,1.301-4.192-1.039-6.877c-0.034-0.041-2.078-2.879-6.52-4.792   c-0.86-0.482-20.776-11.524-23.303-14.993C259.953,93.947,258.548,92.583,256.636,92.583z"/>
	<path d="M311.612,202.36c-0.042,0-0.083-0.015-0.109-0.047c-0.042-0.035-0.042-0.083-0.042-0.134c0-0.032,0-0.066,0-0.095   c0.014-0.013,0.014-0.054,0.014-0.076c0-1.664-1.742-3.021-3.882-3.021c-2.045,0-3.731,1.252-3.855,2.851   c0,0.095-0.069,0.159-0.166,0.152l-0.186-0.016c-0.041,0-0.075-0.012-0.116-0.041l-16.083-17.045c0,0-0.006,0-0.012,0   c-2.596,0-2.679,5.397-2.679,5.461c-0.006,0.013-0.006,0.032-0.006,0.048c-0.125,0.365-0.31,0.853-0.669,0.853   c-0.434,0-0.708-0.742-0.777-0.977c0-0.006,0-0.006-0.014-0.016c-0.929-4.846,0.771-8.176,2.362-10.12   c1.713-2.105,3.634-3.047,3.71-3.082c0.916-0.454,2.478-0.787,3.71-0.787c0.544,0,0.986,0.057,1.315,0.181   c1.624,0.599,2.271,1.887,2.299,1.934c0.475,1.136,0.523,1.976,0.173,2.499c-0.331,0.495-0.931,0.552-1.165,0.552   c-0.082,0-0.123-0.016-0.123-0.016c-0.53-0.066-1.033-0.108-1.487-0.108c-2.148,0-2.947,0.866-3.249,1.484   c0.667-0.605,1.541-0.936,2.554-0.936c1.012,0,1.81,0.317,1.844,0.33c0.021,0,0.035,0.022,0.041,0.041l17.452,16.963   c0.386,0.384,0.585,0.938,0.55,1.551c-0.027,0.529-0.232,1.052-0.501,1.259c-0.255,0.206-0.545,0.323-0.889,0.358   C311.626,202.36,311.62,202.36,311.612,202.36z M307.592,198.669c2.32,0,4.206,1.494,4.206,3.339   c0.201-0.047,0.358-0.13,0.517-0.253c0.165-0.14,0.358-0.559,0.378-1.034c0.021-0.301-0.021-0.866-0.447-1.293l-17.43-16.957   c-0.139-0.048-0.84-0.282-1.687-0.282c-1.177,0-2.099,0.44-2.747,1.322c-0.049,0.054-0.125,0.083-0.187,0.054   c-0.061-0.025-0.116-0.089-0.102-0.149c0-0.028,0.013-0.634,0.495-1.24c0.441-0.545,1.349-1.199,3.235-1.199   c0.475,0,0.992,0.042,1.529,0.124c0,0,0.026,0,0.082,0c0.193,0,0.654-0.041,0.896-0.4c0.289-0.424,0.22-1.183-0.192-2.188   c0,0-0.62-1.205-2.121-1.763c-0.29-0.108-0.71-0.166-1.206-0.166c-1.191,0-2.69,0.317-3.572,0.758   c-0.013,0.012-1.928,0.958-3.607,3c-1.542,1.886-3.196,5.137-2.287,9.84c0.124,0.355,0.345,0.736,0.475,0.736   c0.063,0,0.201-0.124,0.352-0.593c0.007-0.206,0.041-1.506,0.387-2.822c0.495-1.922,1.389-2.934,2.616-2.934   c0.026,0,0.061,0,0.096,0c0.042,0,0.083,0.013,0.11,0.042l16.056,17.02C303.682,199.95,305.458,198.669,307.592,198.669z"/>
	<path fill="#F49C00" d="M314.875,165.365c4.736-3.555,22.463-7.532,22.463-7.532l44.94-9.317   c20.915-3.827,17.204-2.993,25.575-2.869c8.358,0.11,16.254,3.106,16.254,3.106s20.432,9.203,31.907,14.461   c11.471,5.261,16.729,14.705,16.729,14.705c3.705,5.797,7.175,10.395,7.175,10.395c6.565,7.462,10.869,10.931,10.869,10.931   c1.073,0.482,27.38-2.689,27.38-2.689c20.542-2.264,41.237-7.525,41.237-7.525c13.609-2.87,25.799-7.532,29.264-8.845   c3.476-1.316,4.667-3.713,4.667-3.713l13.266-20.788c0,0,2.217-4.131,5.549-4.849c9.501-2.023,12.138-1.604,30.903-5.431   c1.907-0.377-0.227-0.025,21.39-3.586c1.729-0.283,16.612-2.629,37.287-6.1c14.345-2.394,20.693-3.595,20.803-3.097   c0.089,0.44-6.568,2.975-13.989,5.499c-4.475,1.522-8.757,2.68-15.419,5.253c-9.68,3.732-19.473,7.757-29.757,13.142   c-15.056,7.89-23.583,15.317-31.9,21.514c-13.149,9.805-22.594,19.963-22.594,19.963c-6.394,5.86-9.33,6.577-9.33,6.577   l-43.14,14.16l9.208-4.598l26.829-12.2c4.839-2.023,8.187-5.375,8.187-5.375c2.207-2.505,8.908-12.24,8.908-12.24l13.024-23.496   l-16.314,20.267l-10.757,0.171c3.342,1.741,0.54,2.692,0.54,2.692l-31.735,13.63c-19.002,7.345-70.152,17.026-70.152,17.026   c0.949,3.104,16.12,6.394,16.12,6.394c-22.577,1.969-23.894-6.574-23.894-6.574c-0.539-5.141,4.902-8.785,4.902-8.785l-0.116-1.189   c-0.96,1.066-4.062,2.74-4.062,2.74c-3.112,0.964-14.348-0.058-14.348-0.058c-4.899-0.84-33.821-3.282-33.821-3.282   c-11.476-1.193-31.675-0.958-31.675-0.958c-6.334,0-5.37-0.605-5.37-0.605c13.976-4.9,81.512-0.117,81.512-0.117l-5.139-4.963   c-3.95-3.757-8.906-11.112-8.906-11.112c-3.058-4.776-5.206-7.227-5.206-7.227c-7.229-7.23-17.926-9.203-17.926-9.203   c-6.513-0.961-12.66-1.193-25.333-2.033c-12.667-0.84-40.287-1.075-40.287-1.075l12.674,9.682c1.315,1.142-1.783,1.072-1.783,1.072   l-14.829,0.717c-10.395,0.358-49.002,5.74-49.002,5.74c-10.753,2.033-15.537,2.273-15.537,2.273c-1.067,0.118-4-1.791-4-1.791   l-6.093-4.428c0,0-0.716-1.011,2.21-3.941C304.233,175.884,313.429,166.44,314.875,165.365"/>
	<path fill="#F49C00" d="M503.923,221.457c-8.563,0-12.915-1.887-15.056-3.469c-2.353-1.735-2.644-3.457-2.657-3.533   c-0.509-4.839,4.213-8.406,4.896-8.895l-0.077-0.752c-1.148,1.063-3.745,2.461-3.869,2.521c0,0.013-0.021,0.022-0.026,0.022   c-0.9,0.276-2.546,0.419-4.886,0.419c-4.271,0-9.46-0.466-9.517-0.482c-4.854-0.812-33.526-3.256-33.821-3.275   c-8.145-0.847-20.659-0.977-27.386-0.977c-2.596,0-4.248,0.013-4.267,0.013c-5.406,0-5.536-0.422-5.585-0.606   c-0.027-0.124,0.036-0.235,0.111-0.289c0.021-0.007,0.027-0.007,0.041-0.016c4.2-1.459,13.618-2.208,27.997-2.208   c22.185,0,49.354,1.795,53.135,2.058l-4.819-4.655c-3.918-3.739-8.873-11.071-8.929-11.137c-3.001-4.722-5.162-7.202-5.191-7.224   c-7.097-7.104-17.727-9.127-17.828-9.149c-5.107-0.748-9.984-1.046-18.051-1.563c-2.163-0.137-4.572-0.279-7.262-0.46   c-11.607-0.771-36.055-1.034-39.799-1.075l12.296,9.393c0.331,0.28,0.44,0.537,0.358,0.755c-0.193,0.523-1.446,0.606-2.176,0.606   h-0.082l-14.809,0.717c-10.264,0.358-48.596,5.679-48.981,5.743c-10.643,2.001-15.504,2.258-15.559,2.271c-0.027,0-0.062,0-0.103,0   c-1.19,0-3.875-1.754-3.986-1.833l-6.1-4.417c-0.013-0.016-0.034-0.029-0.041-0.035c-0.082-0.118-0.716-1.218,2.231-4.151   c0.372-0.387,9.225-9.46,10.657-10.532c4.708-3.539,21.796-7.401,22.525-7.56l44.942-9.32c14.25-2.603,17.038-3.038,19.895-3.038   c0.716,0,1.418,0.036,2.244,0.063c0.936,0.033,2.003,0.075,3.47,0.095c8.296,0.124,16.228,3.098,16.302,3.117   c0.218,0.098,20.585,9.27,31.928,14.464c11.388,5.219,16.75,14.679,16.799,14.774c3.662,5.715,7.133,10.329,7.157,10.383   c6.246,7.091,10.507,10.614,10.83,10.89c0.042,0.006,0.158,0.029,0.502,0.029c4.002,0,26.54-2.712,26.766-2.74   c20.317-2.246,41.012-7.478,41.211-7.525c8.908-1.877,18.696-4.827,29.104-8.778l0.167-0.067c3.359-1.268,4.558-3.596,4.571-3.622   l13.272-20.806c0.083-0.165,2.287-4.183,5.659-4.916c4.157-0.881,6.926-1.293,10.438-1.817c4.406-0.646,9.899-1.464,20.46-3.621   l0.399-0.082c1.169-0.242,1.169-0.242,15.24-2.56l5.766-0.938c0.309-0.055,1.051-0.172,2.185-0.35   c4.967-0.799,18.177-2.913,35.097-5.75c2.707-0.454,5.122-0.86,7.264-1.225c7.572-1.281,11.744-1.998,13.094-1.998   c0.275,0,0.578,0.021,0.619,0.241c0.042,0.193,0.096,0.453-4.282,2.14c-2.532,0.991-6.018,2.245-9.803,3.539   c-1.412,0.482-2.795,0.923-4.254,1.391c-3.09,0.991-6.603,2.107-11.163,3.869c-9.188,3.547-19.148,7.593-29.743,13.136   c-12.197,6.393-20.13,12.495-27.122,17.87c-1.64,1.269-3.195,2.464-4.754,3.628c-12.988,9.678-22.481,19.842-22.572,19.937   c-6.367,5.832-9.287,6.596-9.403,6.628l-43.137,14.156c-0.075,0.029-0.166-0.013-0.201-0.082c-0.026-0.083,0.017-0.181,0.084-0.222   l9.205-4.598l26.841-12.185c4.751-2.004,8.098-5.321,8.138-5.356c2.161-2.467,8.812-12.123,8.881-12.228l12.115-21.837   l-15.144,18.808c-0.029,0.035-0.068,0.058-0.117,0.058l-10.169,0.177c0.841,0.511,1.238,1.012,1.197,1.516   c-0.055,0.771-1.154,1.154-1.209,1.17l-31.713,13.617c-18.213,7.047-66.555,16.357-69.997,17.01c1.403,2.93,15.8,6.08,15.943,6.111   c0.07,0.016,0.133,0.092,0.124,0.174c0,0.067-0.069,0.137-0.152,0.146C508.034,221.353,505.893,221.457,503.923,221.457z    M491.154,204.289c0.013,0,0.033,0.006,0.039,0.006c0.071,0.019,0.111,0.076,0.118,0.137l0.117,1.192   c0.013,0.06-0.02,0.117-0.069,0.159c-0.055,0.035-5.349,3.647-4.832,8.625c0,0.013,0.287,1.693,2.562,3.346   c2.104,1.541,6.387,3.387,14.834,3.387c1.658,0,3.437-0.07,5.295-0.222c-3.47-0.795-14.396-3.551-15.234-6.263   c-0.014-0.048-0.007-0.095,0.021-0.137c0.022-0.028,0.063-0.063,0.104-0.069c0.517-0.099,51.36-9.761,70.13-17.027l31.721-13.624   c0.276-0.082,0.965-0.428,1.005-0.894c0.021-0.302-0.221-0.812-1.548-1.5c-0.063-0.029-0.105-0.111-0.077-0.181   c0.014-0.066,0.077-0.124,0.139-0.124l10.691-0.178l16.255-20.197c0.061-0.063,0.156-0.083,0.22-0.029   c0.075,0.042,0.096,0.137,0.055,0.206l-13.032,23.489c-0.077,0.095-6.726,9.783-8.929,12.282c-0.043,0.025-3.416,3.394-8.243,5.41   l-26.82,12.19l-7.241,3.631l41.065-13.494c0.039,0,3-0.792,9.271-6.539c0.083-0.092,9.593-10.274,22.604-19.966   c1.555-1.17,3.11-2.363,4.748-3.634c6.996-5.379,14.941-11.483,27.173-17.902c10.595-5.546,20.576-9.595,29.781-13.147   c4.562-1.763,8.074-2.886,11.175-3.869c1.457-0.468,2.835-0.909,4.246-1.389c8.138-2.768,13.004-4.723,13.776-5.29   c-0.051,0-0.109-0.012-0.208-0.012c-1.307,0-5.481,0.715-13.03,1.994c-2.148,0.36-4.566,0.774-7.264,1.228   c-16.937,2.835-30.14,4.948-35.11,5.748c-1.129,0.179-1.879,0.297-2.19,0.338l-5.761,0.95c-14.051,2.313-14.051,2.313-15.213,2.561   l-0.421,0.083c-10.575,2.162-16.054,2.974-20.46,3.621c-3.511,0.523-6.279,0.938-10.422,1.817   c-3.236,0.688-5.427,4.715-5.445,4.757l-13.274,20.813c-0.048,0.083-1.254,2.441-4.743,3.771l-0.156,0.057   c-10.432,3.952-20.232,6.911-29.143,8.784c-0.208,0.054-20.922,5.287-41.251,7.532c-0.227,0.025-22.786,2.74-26.809,2.74   c-0.438,0-0.576-0.028-0.645-0.063c-0.014,0-0.03-0.006-0.043-0.019c-0.041-0.044-4.377-3.567-10.884-10.953   c-0.042-0.054-3.532-4.681-7.187-10.417c-0.062-0.102-5.376-9.473-16.667-14.642c-11.347-5.197-31.709-14.368-31.9-14.463   c-0.084-0.022-7.958-2.974-16.193-3.098c-1.467-0.013-2.59-0.054-3.483-0.083c-0.819-0.035-1.527-0.069-2.23-0.069   c-2.835,0-5.618,0.428-19.841,3.03l-44.925,9.321c-0.18,0.041-17.748,4.005-22.416,7.49c-1.405,1.065-10.519,10.414-10.615,10.512   c-2.541,2.54-2.265,3.564-2.204,3.723l6.073,4.392c0.021,0.019,2.718,1.763,3.806,1.763c0.035,0,0.062,0,0.083,0   c0.055,0,4.907-0.263,15.523-2.264c0.386-0.057,38.738-5.391,49.017-5.737l14.829-0.729h0.082c1.005,0,1.791-0.159,1.873-0.377   c0.026-0.089-0.055-0.235-0.262-0.406l-12.668-9.682c-0.054-0.042-0.067-0.108-0.054-0.172c0.029-0.06,0.089-0.114,0.152-0.114   h0.014c0.276,0,27.744,0.244,40.28,1.072c2.7,0.178,5.101,0.336,7.277,0.466c8.065,0.511,12.948,0.821,18.078,1.57   c0.102,0.022,10.822,2.067,18.007,9.247c0.036,0.035,2.205,2.518,5.232,7.262c0.043,0.069,4.985,7.382,8.867,11.083l5.149,4.972   c0.049,0.042,0.068,0.108,0.035,0.166c-0.019,0.066-0.091,0.108-0.166,0.095c-0.296-0.013-29.78-2.087-53.547-2.087   c-14.165,0-23.496,0.724-27.741,2.141c0.304,0.127,1.37,0.346,5.17,0.346c0.014,0,1.673-0.013,4.275-0.013   c6.741,0,19.271,0.124,27.418,0.977c0.292,0.022,28.97,2.452,33.835,3.276c0.037,0.016,5.221,0.476,9.471,0.476   c2.291,0,3.903-0.14,4.776-0.399c0.233-0.117,3.118-1.707,4.005-2.705C491.071,204.301,491.105,204.289,491.154,204.289z"/>
	<path d="M367.334,249.551c-0.015,0-0.028-0.007-0.042-0.019l-15.057-3.815l-26.291-7.05l-29.168-7.89   c-0.192-0.054-20.116-5.274-23.785-6.223c-0.875-0.221-2.465-0.333-4.71-0.333c-5.513,0-13.19,0.692-13.272,0.704l-21.526,0.594   c-3.237-0.07-7.801-2.315-11.125-3.939c-1.742-0.854-3.242-1.592-3.683-1.557c-15.112,1.37-42.39,4.509-42.659,4.544l-6.477,0.124   l0,0c-0.08,0-0.145-0.063-0.162-0.146c-0.008-0.073,0.03-0.149,0.112-0.178l33.22-10.63c0.296-0.123,0.716-0.184,1.246-0.184   c3.415,0,10.54,2.546,10.836,2.664c0.441,0.146,0.702,0.219,0.881,0.26c-0.124-0.089-0.281-0.2-0.44-0.301l-16.385-9.342   c-0.007,0-0.007,0-0.013-0.013c-1.405-1.129-1.392-1.805-1.363-3.022v-0.076c0.02-1.421,2.354-3.885,2.451-3.996l10.009-12.472   l8.717-10.754c0.17-0.266,0.398-0.399,0.66-0.399c1.157,0,2.671,2.816,2.85,3.14c1.501,2.727,0.172,6.121,0.117,6.266l-3.229,7.763   c-0.86,1.811,1.833,3.739,1.859,3.745l14.939,11.242c2.678,2.1,7.146,2.128,7.2,2.128l66.806-1.433l10.836-0.177   c0.082,0.013,0.15,0.069,0.158,0.159c0.007,0.082-0.055,0.158-0.143,0.158l-47.405,6.27l-25.307,2.543l22.497-0.599h0.145   c3.195,0,5.989,1.247,6.168,1.335l26.05,8.598l44.217,14.815l20.309,7.173c0.069,0.013,0.125,0.083,0.125,0.165   s-0.069,0.159-0.16,0.159H367.334z M268.282,223.893c2.273,0,3.896,0.124,4.792,0.358c3.669,0.936,23.585,6.168,23.792,6.209   l29.162,7.89l26.29,7.056l11.628,2.952l-16.984-5.987l-44.218-14.822l-26.049-8.61c-0.014,0-0.014,0-0.028,0   c-0.028-0.016-2.821-1.313-6.037-1.313h-0.138l-26.848,0.733c-0.09,0-0.159-0.07-0.173-0.159c0-0.089,0.069-0.159,0.152-0.171   l29.644-2.987l44.651-5.896l-8.067,0.124l-66.806,1.433c-0.192,0-4.639-0.029-7.401-2.188l-14.931-11.229   c-0.11-0.076-2.926-2.099-1.955-4.138l3.221-7.763c0.014-0.028,1.321-3.39-0.11-5.99c-0.427-0.828-1.734-2.975-2.561-2.975   c-0.152,0-0.275,0.095-0.386,0.275c-0.013,0-0.013,0-0.021,0.013l-8.721,10.753l-10.023,12.482   c-0.027,0.035-2.349,2.483-2.369,3.792v0.07c-0.027,1.182-0.035,1.734,1.239,2.752l16.365,9.343   c0.86,0.517,0.812,0.682,0.791,0.771c-0.021,0.063-0.075,0.158-0.274,0.158c-0.193,0-0.599-0.095-1.226-0.304   c-0.069-0.032-7.366-2.648-10.726-2.648c-0.489,0-0.867,0.048-1.128,0.159l-32.198,10.312l5.362-0.11   c0.252-0.022,27.551-3.159,42.649-4.532c0.523-0.054,1.908,0.622,3.855,1.583c3.311,1.614,7.827,3.837,10.987,3.91l21.512-0.59   C255.051,224.597,262.761,223.893,268.282,223.893z"/>
	<path fill="#FFFFFF" d="M273.246,204.843l0.091-0.454c1.733-18.691-14.816-20.727-18.842-20.955l-5.007-5.762   c-1.699-1.871-1.699,0.276-1.699,0.276l-0.09,6.621c-0.088,1.985,0.674,2.741,0.674,2.741l4.62,4.439   c0.805,0.54,7.883,0.628,7.883,0.628c1.879,0.139-0.268-1.887-0.268-1.887l-2.28-2.613c15.6,5.216,13.033,17.048,13.033,17.048   l0.041,0.051c-0.97,0.406-1.646,1.306-1.646,2.365c0,1.434,1.239,2.604,2.774,2.604s2.781-1.17,2.781-2.604   C275.312,206.147,274.437,205.142,273.246,204.843"/>
	<path fill="#FFFFFF" d="M620.233,265.515l-8.797,10.223c0,0,57.379-16.128,98.78,22.05   C710.217,297.788,687.272,255.301,620.233,265.515z"/>
	<path fill="#FFFFFF" d="M498.113,298.505h34.629l69.262-31.75c0,0,2.451,2.353-20.5,28.158c0,0,33.925-23.819,38.755-45.244   L498.113,298.505z"/>
	<path fill="#FFFFFF" d="M556.769,226.715c2.896-1.326-46.607,11.788-46.607,11.788c-13.515,3.228-18.175,6.583-18.175,6.583   l-23.178,19.481l4.306,3.028c0.752-1.5,2.371-2.328,3.912-1.887c1.75,0.495,2.732,2.458,2.174,4.379   c-0.135,0.495-0.379,0.935-0.673,1.307l3.54,2.493c17.333-27.371,33.945-32.515,33.945-32.515S554.789,227.604,556.769,226.715z"/>
	<path fill="#FFFFFF" d="M382.513,216.218l46.159,26.442c0,0,6.904,3.856,11.84,2.686c0,0,46.152-14.961,53.325-19.179   c1.448-0.84-51.808,14.435-51.808,14.435s0.713-7.084,5.562-10.579l-64.9-15.944C382.692,214.078,374.445,211.833,382.513,216.218z   "/>
	<polygon fill="#FFFFFF" points="212.61,300.645 220.452,300.839 231.184,281.625 224.665,276.716  "/>
	<path fill="#FFFFFF" d="M171.962,275.821c33.771-3.85,46.988,6.162,46.988,6.162l3.29-6.514c-8.48-8.575-34.414-8.068-34.414-8.068   c-30.82-0.269-44.42,10.948-44.42,10.948c32.198-2.164,44.868,20.961,44.868,20.961c1.253,2.505,0.662-0.152,0.572-0.971   C187.331,281.625,171.962,275.821,171.962,275.821z"/>
	<path fill="#FFFFFF" d="M457.626,266.054l-62.204-35.312l-88.739-43.747l38.91,22.233c13.259,6.989,13.968,7.354,13.968,7.354   l12.02,15.406c0,0,0.896,0.536,1.791,1.985c0.895,1.43,4.84,2.864,4.84,2.864c7.889,2.324,85.143,48.05,85.143,48.05   c6.465,4.833,9.019,20.197,10.591,19.883c0.893-0.182-5.095-25.998-5.557-29.033C467.845,272.152,457.626,266.054,457.626,266.054z   "/>
	<path fill="#FFFFFF" d="M247.465,240.424l70.508,44.698l-71.472-52.598c-6.451-4.293-15.296-4.528-15.296-4.528h-65.494   c-0.716-15.542,23.664-38.248,23.664-38.248c14.705-15.181,37.767-31.434,37.767-31.434   c-26.657,10.393-51.151,35.261-51.151,35.261c-13.027,12.784-24.855,32.509-24.855,32.509c-1.796,3.345,1.91,4.535,1.91,4.535   l25.572,12.193c56.172,24.977,79.008,54.976,79.008,54.976c-17.576-33.098-72.313-60.243-72.313-60.243l51.399-0.476   C242.673,237.31,247.465,240.424,247.465,240.424z"/>
	<path fill="#FFFFFF" d="M207.302,160.703c0,0,8.606-6.333,22.478-15.18c0,0,32.975-19.591,41.938-23.901l10.044-5.261   c0,0,2.809-2.029,3.587-0.109c0,0,1.018,2.919-0.537,5.494l-8.55,12.427c0,0-24.735,3.352-39.549,25.221   c0,0,19.172-18.881,43.315-20.321c0,0,0.42,0.359,1.494-1.19l9.563-17.101c0,0,1.432-4.173-1.076-7.043c0,0-2.036-2.87-6.567-4.846   c0,0-20.735-11.47-23.248-14.939c0,0-2.939-3.049-6.396-0.536c0,0-18.525,15.537-26.05,22.834c0,0-24.026,24.975-27.495,29.271   c-3.457,4.303-15.896,18.766-15.896,18.766l-20.678,27.606l-10.273,15.545l38.117-41.958   C191.523,165.482,203.241,163.573,207.302,160.703z"/>
	<path fill="#FFFFFF" d="M283.193,190.224c0,0,0.593,1.853,1.129,0.124c0,0,0.07-5.737,2.934-5.62l16.137,17.086l0.191,0.01   c0.118-1.668,1.86-2.991,4.008-2.991c2.244,0,4.047,1.421,4.047,3.174c0,0.063-0.02,0.124-0.027,0.188   c0.234-0.022,0.523-0.098,0.807-0.317c0.392-0.323,0.777-1.728-0.063-2.568l-17.444-16.969c0,0-2.994-1.198-4.66,1.075   c0,0,0.062-2.873,5.073-2.156c0,0,2.21,0.241,0.958-2.8c0,0-0.633-1.268-2.21-1.858c-1.128-0.422-3.641-0.028-4.901,0.605   C289.17,177.206,281.404,180.964,283.193,190.224z"/>
	<path fill="#FFFFFF" d="M302.794,227.391l-26.051-8.604c0,0-2.897-1.351-6.251-1.316l-26.855,0.723l29.646-2.987l47.404-6.267   l-10.836,0.165l-36.172,0.78c1.051-0.419,1.792-1.398,1.792-2.544c0-1.182-0.833-2.241-2.038-2.616l0.055-0.33   c0.572-6.029-0.716-10.903-3.828-14.512c-4.806-5.562-12.681-6.463-15.09-6.603l-4.958-5.711c-0.496-0.558-0.909-0.821-1.245-0.821   c-0.187,0-0.503,0.069-0.655,0.634c-0.083,0.276-0.083,0.552-0.083,0.558l-0.097,6.627c-0.083,2.027,0.689,2.823,0.73,2.858   l4.612,4.439c0.013,0.006,0.013,0.016,0.028,0.016c0.818,0.551,7.241,0.646,7.957,0.659c0.063,0,0.124,0.006,0.186,0.006   c0.392,0,0.641-0.124,0.731-0.342c0.227-0.587-0.848-1.627-1.047-1.827l-1.88-2.16c7.573,2.686,10.534,6.996,11.69,10.173   c1.254,3.444,0.703,6.32,0.668,6.492c-0.984,0.463-1.619,1.411-1.619,2.457c0,1.199,0.817,2.206,1.947,2.591l-28.492,0.612   c0,0-4.542,0-7.296-2.153l-14.939-11.236c0,0-2.837-1.998-1.909-3.955l3.229-7.757c0,0,1.363-3.421-0.116-6.133   c0,0-2.251-4.262-3.229-2.711l-8.729,10.75l-10.01,12.488c0,0-2.396,2.506-2.423,3.897c-0.027,1.252-0.068,1.858,1.309,2.962   l16.377,9.339c0,0,1.934,1.17-0.571,0.339c0,0-9.598-3.469-11.979-2.48l-33.22,10.63l6.453-0.124c0,0,27.386-3.155,42.669-4.544   c1.314-0.107,9.803,5.385,14.814,5.508l21.52-0.599c0,0,14.334-1.313,18.038-0.365c3.711,0.964,23.792,6.216,23.792,6.216   l29.163,7.884l26.29,7.062l15.057,3.828l-20.316-7.18L302.794,227.391z M269.915,207.342c0-0.948,0.599-1.823,1.549-2.213   c0.042-0.022,0.074-0.063,0.096-0.104c0-0.048,0-0.099-0.021-0.13c0.083-0.482,0.53-3.244-0.688-6.596   c-2.189-6.028-7.979-9.073-12.462-10.573c-0.074-0.028-0.143,0-0.179,0.06c-0.047,0.054-0.041,0.137,0.008,0.2l2.286,2.629   c0.454,0.428,1.08,1.198,0.976,1.475c-0.041,0.117-0.295,0.136-0.433,0.136c-0.048,0-0.103,0-0.171-0.013   c-2.802-0.028-7.173-0.222-7.786-0.593l-4.606-4.417c0-0.016-0.709-0.758-0.62-2.62l0.09-6.634c0-0.006,0-0.241,0.062-0.482   c0.075-0.26,0.192-0.4,0.351-0.4c0.157,0,0.461,0.124,1.011,0.717l4.998,5.756c0.021,0.042,0.062,0.061,0.111,0.061   c2.292,0.13,10.16,0.97,14.931,6.491c3.05,3.539,4.311,8.344,3.766,14.264l-0.097,0.453c-0.021,0.086,0.042,0.168,0.118,0.194   c1.149,0.285,1.947,1.253,1.947,2.34c0,1.352-1.184,2.439-2.623,2.439C271.085,209.781,269.915,208.693,269.915,207.342z"/>
	<g>
		<path fill="#F49C00" d="M277.067,406.459c-3.112-2.78-9.721-4.145-20.212-4.145h-21.383c-4.64,0-8.455,0.751-11.345,2.233    c-3.064,1.541-5.012,4.062-5.811,7.474c-0.723,3.127-1.123,5.467-1.226,7.187c-0.096,1.652-0.151,4.312-0.151,8.083    c0,3.979,0.179,7.478,0.523,10.383c0.358,3.091,1.198,5.645,2.492,7.614c1.335,2.045,3.083,3.51,5.198,4.338    c1.961,0.762,4.406,1.319,7.249,1.596c2.768,0.288,5.673,0.398,8.646,0.398h12.104c1.996,0,4.164-0.012,6.451-0.063    c2.236-0.031,4.122-0.13,5.569-0.26c4.962-0.016,8.783-1.11,11.351-3.27c2.609-2.176,4.166-5.296,4.604-9.246    c0.414-3.689,0.635-7.222,0.635-10.532v-3.092C281.762,415.425,280.22,409.295,277.067,406.459z M272.971,424.035v9.398    c0,3.429-0.502,6.003-1.506,7.627c-0.896,1.458-2.893,2.341-5.915,2.616c-3.429,0.302-6.884,0.47-10.278,0.47h-6.017    l-12.488-0.264h-0.028c-6.368,0-8.55-1.329-9.267-2.451c-0.791-1.239-1.741-4.145-1.741-10.988v-3.329l0.213-6.863v-0.038    c0-5.698,1.135-7.786,2.086-8.515c1.025-0.796,3.6-1.754,10.058-1.754l11.221-0.133l11.38,0.133c1.508,0,2.939,0.066,4.281,0.179    c1.294,0.095,2.582,0.323,3.835,0.646c1.032,0.26,1.831,0.812,2.478,1.68c0.675,0.924,1.13,2.354,1.336,4.228    C272.854,418.741,272.971,421.205,272.971,424.035z"/>
		<polygon fill="#F49C00" points="294.719,451.151 303.289,451.151 303.289,430.018 341.565,430.018 341.565,422.722     303.289,422.722 303.289,410.15 343.589,410.15 343.589,402.803 294.719,402.803   "/>
		<polygon fill="#F49C00" points="354.666,451.151 363.231,451.151 363.231,430.018 401.507,430.018 401.507,422.722     363.231,422.722 363.231,410.15 403.531,410.15 403.531,402.803 354.666,402.803   "/>
		<rect x="414.614" y="402.803" fill="#F49C00" width="8.563" height="48.349"/>
		<path fill="#F49C00" d="M487.896,436.846c0,2.232-0.338,5.09-1.933,5.984c-1.04,0.612-3.385,1.316-8.604,1.316h-22.113    c-4.694,0-7.688-0.897-8.639-2.62c-1.123-1.982-1.688-5.821-1.688-11.378c0-1.982,0.027-4.069,0.076-6.209    c0.048-2.115,0.221-4.523,0.497-7.139c0.26-2.328,0.846-3.91,1.769-4.764c0.508-0.481,2.127-1.351,7.103-1.737    c1.804-0.013,4.49-0.096,7.982-0.26c3.488-0.146,6.132-0.229,7.831-0.229c4.608,0,8.254,0.158,10.857,0.488    c3.052,0.371,4.365,0.862,4.93,1.198c0.661,0.429,1.081,1.095,1.266,2.064c0.247,1.27,0.374,2.946,0.374,4.961v1.76h8.494v-1.348    c0-4.203-0.599-7.644-1.79-10.218c-1.296-2.794-3.609-4.545-6.864-5.197c-2.872-0.553-5.239-0.895-7.028-1.024    c-1.763-0.112-4.074-0.182-6.904-0.182h-8.689c-2.327,0-4.373,0.035-6.104,0.083c-1.724,0.069-3.569,0.193-5.502,0.405    c-4.503,0.022-8.117,0.862-10.732,2.553c-2.718,1.758-4.446,4.338-5.148,7.706c-0.648,3.076-1.006,5.528-1.082,7.284    c-0.074,1.707-0.104,4.329-0.104,7.799l0.29,8.729c0,4.297,1.22,7.696,3.609,10.132c2.367,2.392,5.904,3.838,10.505,4.291    l10.807,0.406h5.439l12.467-0.406c7.306,0,11.944-1.151,14.161-3.558c2.188-2.356,3.249-6.501,3.249-12.71v-1.348h-8.778V436.846z    "/>
		<rect x="509.205" y="402.803" fill="#F49C00" width="8.57" height="48.349"/>
		<polygon fill="#F49C00" points="586.549,442.354 543.812,402.803 532.184,402.803 532.184,451.151 540.753,451.151     540.753,411.416 583.616,451.151 595.119,451.151 595.119,402.803 586.549,402.803   "/>
		<path fill="#F49C00" d="M639.771,402.803h-9.239l-30.263,48.349h10.052l6.317-10.255h37.327l6.402,10.255h9.912L639.771,402.803z     M649.423,433.611h-28.308l14.056-22.855L649.423,433.611z"/>
	</g>
	<g>
		<path fill="#FFFFFF" d="M98.792,322.827c-2.202-2.032-5.325-3.491-9.527-4.479c-3.924-0.923-8.111-1.517-12.426-1.779    c-4.221-0.248-8.83-0.371-13.696-0.371c-5.129,0-9.773,0.117-13.78,0.323c-4.119,0.229-8.167,0.792-12.036,1.681    c-4.155,0.97-7.444,2.499-9.786,4.528l-0.042,0.035c-2.536,2.315-4.25,5.055-5.08,8.15c-0.748,2.825-1.128,6.061-1.128,9.64    v15.806c0,8.838,2.787,15.063,8.28,18.491c3.384,2.3,7.738,3.794,12.967,4.487c4.951,0.635,11.087,0.978,18.247,0.978    c5.821,0,10.875-0.096,15.045-0.309c4.269-0.193,8.485-0.764,12.533-1.687c4.323-0.977,7.772-2.553,10.234-4.668l0.059-0.048    c2.144-1.935,3.844-3.998,5.039-6.162c1.297-2.34,1.925-5.41,1.925-9.396v-18.65c0-5.004-0.854-8.756-2.616-11.512    C101.384,325.346,100.043,323.729,98.792,322.827z M44.21,339.646c0.406-3.365,1.195-5.074,1.804-5.905l0.017-0.017    c0.341-0.481,1.379-1.376,4.485-1.893c2.953-0.494,7.283-0.751,12.877-0.751c3.074,0,5.975,0.044,8.639,0.139    c4.747,0.4,7.111,1.336,8.276,2.064c1.306,1.062,1.951,2.911,1.951,5.648v17.429c0,1.487-0.238,2.917-0.698,4.228    c-0.407,1.104-0.878,1.928-1.416,2.464c-1.17,0.825-2.912,1.434-5.187,1.792c-2.641,0.425-6.647,0.678-11.924,0.741    c-5.48-0.095-9.577-0.304-12.168-0.634c-2.072-0.24-3.642-0.841-4.665-1.747c-0.691-0.752-1.797-2.733-1.797-7.854v-13.707    C44.406,340.897,44.349,340.245,44.21,339.646z"/>
		<polygon fill="#FFFFFF" points="170.726,379.863 203.626,316.672 179.083,316.672 155.688,362.307 132.329,316.672     108.042,316.672 140.676,379.863   "/>
		<polygon fill="#FFFFFF" points="231.48,355.038 275.092,355.038 275.092,340.638 231.48,340.638 231.48,331.559 277.452,331.559     277.452,316.672 208.238,316.672 208.238,379.863 277.693,379.863 277.693,364.974 231.48,364.974   "/>
		<path fill="#FFFFFF" d="M348.464,364.079c0.261,1.107,0.391,2.565,0.391,4.37v11.414H372.2v-13.409    c0-5.042-1.397-8.993-4.15-11.727l-0.166-0.143l-0.178-0.134c-0.799-0.567-1.667-1.072-2.61-1.506    c1.012-0.495,1.9-1.012,2.678-1.596c3.483-2.591,5.178-7.417,5.178-14.796c0-6.835-2.273-11.88-6.747-15.014l-0.021-0.015    c-4.757-3.264-13.238-4.854-25.933-4.854h-48.396v63.191h23.242v-19.117h22.207c2.741,0,4.938,0.13,6.521,0.337    c1.314,0.215,2.417,0.621,3.352,1.265C348.126,363.023,348.36,363.635,348.464,364.079z M315.097,331.559h22.441    c3.153,0,5.701,0.113,7.587,0.355c1.446,0.18,2.561,0.532,3.318,1.08c0.399,0.429,1.17,1.723,1.17,5.329    c0,2.914-0.528,4.966-1.5,5.838c-0.978,0.605-2.105,1.046-3.373,1.287c-1.507,0.276-3.753,0.406-6.679,0.406h-22.964V331.559z"/>
		<path fill="#FFFFFF" d="M420.252,380.316h6.684c13.935,0,23.021-1.06,27.786-3.248c3.275-1.516,5.823-3.773,7.558-6.732    c1.708-2.893,2.577-6.226,2.577-9.899l-0.017-0.166c-0.124-2.023-0.22-3.51-0.304-4.421c-0.095-1.087-0.378-2.292-0.839-3.675    c-0.485-1.475-1.301-2.905-2.396-4.239c-1.128-1.364-2.658-2.534-4.527-3.477l-0.072-0.035c-2.849-1.335-6.732-2.232-11.887-2.686    c-4.82-0.454-10.997-0.824-18.359-1.101c-2.136-0.083-4.395-0.181-6.9-0.288c-2.363-0.104-4.404-0.264-6.127-0.477    c-1.598-0.199-2.934-0.456-3.965-0.799c-0.827-0.275-1.115-0.517-1.185-0.583c-0.124-0.306-0.385-1.158-0.565-3.141    c0.021-1.592,0.297-2.204,0.385-2.356c0.193-0.358,0.593-0.665,1.172-0.936l0.067-0.028c0.951-0.472,3.843-1.265,12.531-1.265    h7.311c7.897,0,9.459,0.936,9.597,1.053l0.067,0.047c0.558,0.365,0.637,1.535,0.637,2.217v5.015h23.369v-2.702    c0-3.745-0.507-6.916-1.521-9.456c-1.136-2.858-3.572-5.239-7.257-7.107c-3.302-1.719-7.888-2.801-14.028-3.295l-0.056-0.006    c-3.587-0.216-9.584-0.333-17.851-0.333c-14.189,0-23.668,1.294-28.977,3.909l-0.097,0.055c-5.618,3.072-8.468,8.429-8.468,15.92    v0.148c0.194,3.539,1.062,6.596,2.603,9.089c1.583,2.546,3.855,4.516,6.774,5.851c1.928,0.923,4.324,1.682,7.133,2.21    c2.697,0.536,5.437,0.917,8.171,1.123c2.676,0.193,5.528,0.343,8.488,0.426c2.947,0.098,6.101,0.18,9.334,0.278    c1.916,0.045,3.636,0.108,5.165,0.178c1.472,0.041,2.697,0.11,3.662,0.206c0.852,0.07,1.728,0.213,2.603,0.412    c0.812,0.193,1.348,0.4,1.645,0.564c0.583,0.425,1.308,1.253,1.308,3.415c0,3.771-1.619,4.453-2.349,4.729    c-1.293,0.453-2.973,0.764-4.998,0.929c-2.202,0.181-5.533,0.323-9.898,0.441c-0.938-0.096-2.229-0.166-3.937-0.166    c-3.498-0.082-6.224-0.247-8.103-0.466c-1.604-0.181-2.859-0.539-3.737-1.033c-0.725-0.4-0.856-0.781-0.902-0.895    c-0.16-0.4-0.379-1.234-0.531-2.794c0.14-0.567,0.212-1.186,0.212-1.903v-2.711h-23.15v2.711c0,2.77,0.125,4.979,0.372,6.749    c0.29,2.017,1.06,3.985,2.299,5.838c1.267,1.896,3.222,3.559,5.838,4.954c3.333,1.775,7.38,2.892,12.006,3.332    C408.983,380.109,414.242,380.316,420.252,380.316z"/>
		<path fill="#FFFFFF" d="M556.148,338.932c0-5.743-1.29-10.507-3.851-14.163l-0.061-0.095l-0.075-0.099    c-2.879-3.434-7.284-5.65-13.136-6.59c-5.314-0.872-11.757-1.306-19.144-1.306h-43.352v63.184h23.249v-18.642h24.416    c4.971,0,9.792-0.412,14.375-1.227c4.916-0.859,8.399-2.147,10.68-3.882C553.828,352.697,556.148,346.917,556.148,338.932z     M533.147,339.315c-0.192,2.993-0.455,4.15-0.604,4.557c0,0.013-0.236,0.505-1.633,1.218l-0.159,0.076    c-0.454,0.282-2.629,1.157-11.111,1.157H499.78v-14.765h20.342c3.786,0,6.677,0.196,8.57,0.577    c1.48,0.311,2.583,0.789,3.201,1.383C532.378,334.118,533.135,335.611,533.147,339.315z"/>
		<polygon fill="#FFFFFF" points="637.159,364.974 590.955,364.974 590.955,355.038 634.565,355.038 634.565,340.638     590.955,340.638 590.955,331.559 636.92,331.559 636.92,316.672 567.722,316.672 567.722,379.863 637.159,379.863   "/>
		<polygon fill="#FFFFFF" points="673.816,355.038 717.425,355.038 717.425,340.638 673.816,340.638 673.816,331.559     719.78,331.559 719.78,316.672 650.565,316.672 650.565,379.863 720.021,379.863 720.021,364.974 673.816,364.974   "/>
		<path fill="#FFFFFF" d="M815.602,325.851l-0.041-0.042c-5.48-6.142-16.591-9.137-33.939-9.137h-47.433v63.191h50.982    c3.259,0,6.762-0.248,10.452-0.718c3.814-0.5,6.83-1.141,9.21-1.994c5.185-1.899,9.149-4.846,11.802-8.702    c2.631-3.869,3.965-8.695,3.965-14.334v-12.323C820.6,335.088,818.926,329.732,815.602,325.851z M757.43,331.559h22.945    c5.637,0,9.776,0.437,12.301,1.306c1.405,0.476,3.173,1.336,3.677,2.604c0.404,1.008,0.881,2.993,0.881,6.793v10.389    c0,4.468-0.895,7.51-2.672,9.054l-0.044,0.054c-1.428,1.294-2.998,2.119-4.778,2.531c-2.047,0.444-4.771,0.685-8.118,0.685H757.43    V331.559z"/>
	</g>
	<g>
		<polygon fill="#FFFFFF" points="161.225,496.924 142.862,472.057 135.841,472.057 135.841,502.664 140.765,502.664     140.765,477.352 159.381,502.664 162.994,502.664 181.659,477.352 181.659,502.664 186.58,502.664 186.58,472.057     179.651,472.057   "/>
		<path fill="#FFFFFF" d="M233.875,474.33c-1.955-1.757-6.154-2.604-12.853-2.604h-13.81c-2.939,0-5.356,0.492-7.18,1.399    c-1.899,0.954-3.113,2.517-3.593,4.633c-0.455,1.981-0.731,3.511-0.793,4.599c-0.054,1.062-0.09,2.752-0.09,5.19    c0,2.547,0.111,4.805,0.331,6.676c0.235,1.944,0.751,3.546,1.563,4.778c0.82,1.27,1.908,2.183,3.215,2.687    c1.254,0.488,2.794,0.825,4.598,1.005c1.771,0.178,3.648,0.276,5.563,0.276h7.807c1.28,0,2.686-0.017,4.157-0.041    c1.447-0.034,2.659-0.098,3.587-0.181c3.141,0,5.542-0.688,7.152-2.036c1.625-1.352,2.589-3.298,2.872-5.784    c0.268-2.355,0.398-4.633,0.398-6.762v-1.981C236.801,479.975,235.844,476.105,233.875,474.33z M231.728,485.447v6.064    c0,2.273-0.344,3.979-1.019,5.067c-0.633,1.046-1.997,1.668-4.048,1.858c-2.217,0.193-4.461,0.304-6.649,0.304h-3.891    l-8.088-0.171c-3.352,0-5.508-0.6-6.229-1.731c-0.779-1.211-1.171-3.653-1.171-7.24v-2.169l0.131-4.439v-0.017    c0-3.795,0.798-5.216,1.473-5.72c0.695-0.556,2.416-1.189,6.677-1.189l7.244-0.098l7.352,0.098c0.969,0,1.899,0.041,2.781,0.082    c0.847,0.083,1.691,0.235,2.518,0.441c0.731,0.193,1.322,0.583,1.763,1.205c0.475,0.653,0.785,1.604,0.93,2.876    C231.658,482.02,231.728,483.625,231.728,485.447z"/>
		<polygon fill="#FFFFFF" points="241.089,476.182 256.814,476.182 256.814,502.664 261.743,502.664 261.743,476.182     277.563,476.182 277.563,472.057 241.089,472.057   "/>
		<path fill="#FFFFFF" d="M320.218,474.33c-1.949-1.757-6.155-2.604-12.86-2.604h-13.796c-2.954,0-5.369,0.492-7.187,1.399    c-1.893,0.954-3.106,2.517-3.593,4.633c-0.456,1.981-0.724,3.511-0.786,4.599c-0.067,1.062-0.096,2.752-0.096,5.19    c0,2.547,0.111,4.805,0.331,6.676c0.227,1.944,0.757,3.546,1.556,4.778c0.832,1.27,1.913,2.183,3.221,2.687    c1.24,0.488,2.795,0.825,4.599,1.005c1.783,0.178,3.649,0.276,5.548,0.276h7.821c1.287,0,2.684-0.017,4.158-0.041    c1.445-0.034,2.658-0.098,3.593-0.181c3.14,0,5.542-0.688,7.153-2.036c1.619-1.352,2.582-3.298,2.871-5.784    c0.262-2.355,0.399-4.633,0.399-6.762v-1.981C323.15,479.975,322.187,476.105,320.218,474.33z M318.07,485.447v6.064    c0,2.273-0.337,3.979-1.012,5.067c-0.634,1.046-2.003,1.668-4.048,1.858c-2.223,0.193-4.461,0.304-6.657,0.304h-3.883    l-8.095-0.171c-3.345,0-5.514-0.6-6.225-1.731c-0.784-1.211-1.184-3.653-1.184-7.24v-2.169l0.137-4.439v-0.017    c0-3.795,0.807-5.216,1.474-5.72c0.703-0.556,2.423-1.189,6.671-1.189l7.249-0.098l7.353,0.098c0.979,0,1.906,0.041,2.781,0.082    c0.854,0.083,1.693,0.235,2.526,0.441c0.73,0.193,1.315,0.583,1.763,1.205c0.475,0.653,0.777,1.604,0.915,2.876    C317.994,482.02,318.07,483.625,318.07,485.447z"/>
		<polygon fill="#FFFFFF" points="351.086,488.91 377.246,488.91 377.246,484.814 351.086,484.814 351.086,476.182 378.231,476.182     378.231,472.057 346.157,472.057 346.157,502.664 378.548,502.664 378.548,498.57 351.086,498.57   "/>
		<path fill="#FFFFFF" d="M435.296,487.547c-1.31-1.227-3.057-1.944-5.194-2.163c-2.009-0.193-3.535-0.329-4.556-0.358    c-1.006-0.034-2.162-0.034-3.426-0.034h-10.768c-1.873,0-3.319-0.295-4.254-0.895c-0.881-0.552-1.308-1.623-1.308-3.234    c0-0.945,0.125-1.741,0.385-2.388c0.219-0.568,0.764-1.041,1.603-1.38c0.943-0.396,2.493-0.686,4.62-0.865    c2.182-0.165,4.309-0.263,6.348-0.263h1.314c2.68,0,4.882,0.098,6.576,0.297c1.651,0.2,2.779,0.454,3.386,0.748    c0.496,0.223,0.883,0.623,1.148,1.187c0.297,0.619,0.437,1.61,0.437,2.959v0.552h4.935v-0.552c0-2.848-0.667-5.026-1.976-6.422    c-1.309-1.433-3.201-2.28-5.618-2.499c-2.284-0.247-3.964-0.381-4.984-0.428c-1.026-0.048-2.7-0.083-4.957-0.083    c-2.741,0-5.259,0.083-7.475,0.264c-2.252,0.165-4.242,0.536-5.921,1.123c-1.763,0.612-3.043,1.687-3.801,3.151    c-0.722,1.412-1.089,3.188-1.089,5.265c0,2.727,0.882,4.697,2.631,5.886c1.686,1.113,4.069,1.675,7.085,1.675l0,0l8.376,0.228    h7.154c2.381,0,4.07,0.26,5.032,0.777c0.838,0.498,1.268,1.693,1.268,3.593c0,1.517-0.346,2.616-1.034,3.237    c-0.721,0.67-2.146,1.12-4.246,1.364c-2.197,0.282-4.936,0.412-8.145,0.412c-1.982,0-4.021-0.057-6.058-0.164    c-1.998-0.112-3.622-0.347-4.804-0.683c-1.047-0.298-1.695-0.751-1.928-1.352c-0.262-0.681-0.399-1.787-0.399-3.294v-1.24h-4.931    v0.584c0,3.396,0.545,5.736,1.667,7.153c1.122,1.418,2.987,2.294,5.542,2.617c2.416,0.307,4.248,0.488,5.431,0.536    c1.198,0.035,2.975,0.069,5.288,0.069h2.479c2.38,0,4.605-0.098,6.628-0.264c2.063-0.177,3.851-0.605,5.322-1.224    c1.543-0.647,2.651-1.64,3.31-2.953c0.626-1.268,0.952-2.859,0.952-4.718C437.34,490.877,436.644,488.78,435.296,487.547z"/>
		<path fill="#FFFFFF" d="M478.458,493.726c0,2.207-0.481,3.611-1.398,4.128c-1.04,0.584-2.952,0.888-5.713,0.888h-14.271    c-3.194,0-5.162-0.634-5.838-1.845c-0.741-1.336-1.128-3.857-1.128-7.497c0-1.266,0.013-2.616,0.049-4.016    c0.021-1.382,0.138-2.945,0.322-4.639c0.173-1.566,0.584-2.657,1.225-3.275c0.443-0.395,1.624-0.952,4.78-1.206    c1.168,0,2.903-0.051,5.148-0.146c2.271-0.096,3.979-0.151,5.08-0.151c2.988,0,5.355,0.119,7.05,0.32    c2.022,0.23,2.904,0.577,3.296,0.823c0.503,0.302,0.82,0.812,0.96,1.529c0.164,0.84,0.247,1.928,0.247,3.25v0.824h4.887v-0.552    c0-2.663-0.378-4.845-1.134-6.469c-0.794-1.723-2.219-2.797-4.223-3.181c-1.844-0.358-3.351-0.594-4.489-0.676    c-1.125-0.063-2.614-0.111-4.439-0.111h-5.611c-1.498,0-2.82,0.017-3.935,0.07c-1.103,0.028-2.302,0.111-3.548,0.261    c-2.857,0-5.129,0.517-6.779,1.569c-1.683,1.109-2.754,2.701-3.195,4.801c-0.406,1.959-0.638,3.529-0.688,4.646    c-0.056,1.107-0.075,2.795-0.075,5.026l0.185,5.645c0.017,5.411,2.975,8.455,8.854,9.004l6.954,0.263h3.498l8.053-0.263    c4.628,0,7.544-0.717,8.924-2.194c1.359-1.469,2.029-4.085,2.029-8.001v-0.584h-5.074V493.726z"/>
		<path fill="#FFFFFF" d="M529.594,474.33c-1.953-1.757-6.153-2.604-12.853-2.604h-13.811c-2.938,0-5.361,0.492-7.179,1.399    c-1.901,0.954-3.11,2.517-3.595,4.633c-0.453,1.981-0.729,3.511-0.791,4.599c-0.055,1.062-0.09,2.752-0.09,5.19    c0,2.547,0.11,4.805,0.332,6.676c0.222,1.944,0.756,3.546,1.562,4.778c0.833,1.27,1.906,2.183,3.214,2.687    c1.255,0.488,2.796,0.825,4.6,1.005c1.776,0.178,3.647,0.276,5.563,0.276h7.812c1.275,0,2.678-0.017,4.152-0.041    c1.445-0.034,2.658-0.098,3.594-0.181c3.14,0,5.548-0.688,7.145-2.036c1.624-1.352,2.589-3.298,2.871-5.784    c0.26-2.355,0.4-4.633,0.4-6.762v-1.981C532.521,479.975,531.563,476.105,529.594,474.33z M527.446,485.447v6.064    c0,2.273-0.344,3.979-1.017,5.067c-0.62,1.046-1.984,1.668-4.051,1.858c-2.214,0.193-4.458,0.304-6.649,0.304h-3.89l-8.088-0.171    c-3.354,0-5.509-0.6-6.23-1.731c-0.776-1.211-1.18-3.653-1.18-7.24v-2.169l0.148-4.439v-0.017c0-3.795,0.789-5.216,1.464-5.72    c0.695-0.556,2.418-1.189,6.678-1.189l7.241-0.098l7.354,0.098c0.977,0,1.901,0.041,2.781,0.082    c0.847,0.083,1.7,0.235,2.534,0.441c0.729,0.193,1.306,0.583,1.763,1.205c0.46,0.653,0.774,1.604,0.922,2.876    C527.379,482.02,527.446,483.625,527.446,485.447z"/>
		<path fill="#FFFFFF" d="M578.873,474.33c-1.948-1.757-6.155-2.604-12.845-2.604h-13.811c-2.946,0-5.358,0.492-7.188,1.399    c-1.891,0.954-3.104,2.517-3.593,4.633c-0.453,1.981-0.726,3.511-0.785,4.599c-0.069,1.062-0.098,2.752-0.098,5.19    c0,2.547,0.112,4.805,0.338,6.676c0.227,1.944,0.752,3.546,1.563,4.778c0.817,1.27,1.901,2.183,3.208,2.687    c1.239,0.488,2.794,0.825,4.598,1.005c1.783,0.178,3.65,0.276,5.558,0.276h7.811c1.289,0,2.686-0.017,4.159-0.041    c1.447-0.034,2.658-0.098,3.603-0.181c3.133,0,5.534-0.688,7.137-2.036c1.626-1.352,2.591-3.298,2.878-5.784    c0.262-2.355,0.399-4.633,0.399-6.762v-1.981C581.805,479.975,580.839,476.105,578.873,474.33z M576.725,485.447v6.064    c0,2.273-0.337,3.979-1.012,5.067c-0.635,1.046-2.003,1.668-4.057,1.858c-2.208,0.193-4.458,0.304-6.655,0.304h-3.875    l-8.092-0.171c-3.354,0-5.512-0.6-6.23-1.731c-0.782-1.211-1.183-3.653-1.183-7.24v-2.169l0.152-4.439v-0.017    c0-3.795,0.791-5.216,1.459-5.72c0.702-0.556,2.422-1.189,6.679-1.189l7.241-0.098l7.338,0.098c0.991,0,1.928,0.041,2.802,0.082    c0.854,0.083,1.7,0.235,2.521,0.441c0.737,0.193,1.314,0.583,1.762,1.205c0.461,0.653,0.776,1.604,0.931,2.876    C576.65,482.02,576.725,483.625,576.725,485.447z"/>
		<polygon fill="#FFFFFF" points="586.094,476.182 601.826,476.182 601.826,502.664 606.748,502.664 606.748,476.182     622.561,476.182 622.561,472.057 586.094,472.057   "/>
		<polygon fill="#FFFFFF" points="632.764,488.91 658.924,488.91 658.924,484.814 632.764,484.814 632.764,476.182 659.901,476.182     659.901,472.057 627.84,472.057 627.84,502.664 660.23,502.664 660.23,498.57 632.764,498.57   "/>
		<path fill="#FFFFFF" d="M704.673,487.189c0.924-1.11,1.38-3.01,1.38-5.838c0-3.609-0.908-6.115-2.698-7.405    c-1.749-1.298-4.519-1.89-8.44-1.89h-25.981v30.607h4.921v-11.937h20.728c2.288,0,3.911,0.33,4.794,0.949    c0.812,0.603,1.239,1.902,1.239,3.868v7.119h4.873v-8.584c0-2.005-0.577-3.428-1.713-4.228c-0.559-0.39-1.248-0.717-2.087-0.989    C703.101,488.454,704.085,487.905,704.673,487.189z M673.854,476.182h20.255c2.54,0,4.357,0.323,5.417,0.954    c0.972,0.594,1.454,1.922,1.454,4.021c0,2.211-0.464,3.691-1.385,4.373c-0.964,0.717-2.781,1.088-5.39,1.088h-20.352V476.182z"/>
	</g>
</g>
</svg>