<?xml version="1.0" standalone="no"?>
<!DOCTYPE svg PUBLIC "-//W3C//DTD SVG 20010904//EN"
 "http://www.w3.org/TR/2001/REC-SVG-20010904/DTD/svg10.dtd">
<svg version="1.0" xmlns="http://www.w3.org/2000/svg"
 width="342.000000pt" height="299.000000pt" viewBox="0 0 342.000000 299.000000"
 preserveAspectRatio="xMidYMid meet">

<g transform="translate(0.000000,299.000000) scale(0.100000,-0.100000)"
fill="#000000" stroke="none">
<path d="M1165 2178 c-33 -35 -78 -83 -100 -107 l-40 -44 40 23 c22 13 82 48
133 78 51 30 96 52 99 48 14 -14 -21 -54 -57 -65 -21 -6 -43 -17 -49 -25 -8
-10 1 -8 26 5 20 10 44 19 53 19 19 0 54 56 45 70 -6 10 -80 60 -88 60 -1 0
-29 -28 -62 -62z"/>
<path d="M1089 2133 c-41 -43 -97 -107 -123 -143 -26 -36 -35 -51 -19 -34 62
68 224 254 220 254 -2 0 -37 -35 -78 -77z"/>
<path d="M2415 2094 c-109 -20 -132 -27 -145 -46 -48 -72 -120 -101 -281 -114
l-76 -7 -33 47 c-25 35 -50 54 -99 77 -36 17 -79 33 -96 36 -16 2 -86 -7 -155
-22 -98 -20 -130 -31 -150 -50 -38 -39 -18 -49 74 -36 43 6 97 11 122 11 48 0
53 5 27 27 -16 13 -5 14 86 8 116 -7 134 -13 181 -67 l32 -38 -68 -1 -69 -2
69 -8 c39 -4 73 -6 77 -3 4 2 5 -5 2 -16 -3 -11 -1 -20 5 -20 6 0 19 -3 29 -6
15 -5 15 -4 3 5 -20 14 -17 15 80 35 108 23 228 71 259 105 20 21 23 22 17 6
-16 -44 -53 -86 -88 -102 -46 -20 -44 -28 3 -11 18 6 63 37 100 68 74 61 143
102 222 131 70 25 33 23 -128 -7z"/>
<path d="M1070 2022 c-61 -41 -102 -78 -135 -122 -19 -26 -35 -52 -35 -56 0
-5 47 -33 104 -62 57 -28 125 -71 152 -94 l49 -42 -35 38 c-19 21 -64 58 -100
82 l-65 44 86 0 c76 0 90 -3 130 -28 24 -15 51 -32 59 -36 32 -18 -15 21 -69
58 -53 36 -54 36 -162 36 -69 0 -109 4 -109 10 0 26 34 72 96 129 37 33 65 61
63 60 -2 0 -15 -8 -29 -17z"/>
<path d="M1068 1956 c-34 -42 -34 -50 -5 -64 l22 -11 -25 -1 c-14 -1 -34 -5
-45 -10 -15 -7 -6 -9 35 -9 84 0 261 -18 300 -30 19 -6 39 -11 45 -10 15 1
-94 39 -140 49 l-40 8 45 2 c25 1 38 4 30 7 -8 3 -18 11 -22 17 -5 8 -8 7 -8
-1 0 -23 -90 -16 -127 10 -28 18 -32 26 -27 50 8 36 -5 34 -38 -7z"/>
<path d="M1192 1972 c2 -9 12 -17 23 -17 11 0 26 -4 34 -9 9 -6 12 -5 7 2 -3
6 -20 18 -37 26 -28 14 -30 14 -27 -2z"/>
<path d="M1300 1982 c0 -14 57 -64 63 -55 6 10 -38 63 -53 63 -5 0 -10 -4 -10
-8z"/>
<path d="M1328 1893 c6 -2 18 -2 25 0 6 3 1 5 -13 5 -14 0 -19 -2 -12 -5z"/>
<path d="M1530 1871 c0 -17 66 -63 190 -133 69 -39 128 -75 132 -82 5 -7 8 -3
8 10 0 32 -18 47 -130 110 -128 72 -200 106 -200 95z"/>
<path d="M1635 1856 c95 -61 120 -70 156 -58 19 6 24 10 12 8 -17 -3 -23 1
-23 13 0 13 -18 22 -77 36 -43 10 -85 20 -93 22 -8 3 3 -7 25 -21z"/>
<path d="M1970 1804 c-25 -8 -60 -28 -77 -44 -36 -32 -41 -43 -18 -34 10 4 15
0 15 -10 0 -10 14 -1 38 26 20 22 55 49 77 59 47 22 28 23 -35 3z"/>
<path d="M2130 1702 c-156 -64 -162 -67 -122 -70 33 -3 64 7 143 43 56 25 103
44 105 42 3 -3 -7 -20 -22 -38 -14 -19 -3 -10 25 19 47 49 62 73 44 71 -5 0
-82 -31 -173 -67z"/>
<path d="M2312 1718 c-8 -10 6 -13 66 -13 62 -1 89 -6 137 -28 l60 -28 -30 26
c-55 46 -207 74 -233 43z"/>
<path d="M915 1707 l-40 -13 37 -8 c21 -4 52 -19 69 -34 l32 -26 -13 24 c-7
14 -20 30 -29 37 -13 10 -8 12 31 13 26 0 58 -4 72 -10 26 -10 46 3 25 16 -22
13 -144 14 -184 1z"/>
<path d="M1102 1655 c-16 -26 -18 -35 -8 -35 14 0 43 57 34 66 -3 3 -15 -11
-26 -31z"/>
<path d="M845 1650 c-16 -11 -25 -20 -20 -20 10 0 64 39 55 40 -3 0 -18 -9
-35 -20z"/>
<path d="M529 1551 c-20 -16 -24 -28 -24 -75 0 -81 14 -91 125 -91 111 0 125
10 125 91 0 79 -21 94 -125 94 -62 0 -83 -4 -101 -19z m159 -64 c4 -48 -11
-67 -53 -67 -56 0 -65 8 -65 54 0 24 3 46 7 50 4 4 30 6 58 4 l50 -3 3 -38z"/>
<path d="M818 1475 l47 -96 45 3 45 3 48 93 48 92 -36 0 c-33 0 -37 -3 -67
-65 -18 -36 -35 -65 -38 -65 -3 0 -20 29 -39 65 -31 61 -35 65 -67 65 l-34 0
48 -95z"/>
<path d="M1070 1475 l0 -95 105 0 c98 0 105 1 105 20 0 18 -7 20 -70 20 -63 0
-70 2 -70 20 0 18 7 20 65 20 58 0 65 2 65 20 0 18 -7 20 -65 20 -51 0 -65 3
-65 15 0 12 14 15 70 15 63 0 70 2 70 20 0 19 -7 20 -105 20 l-105 0 0 -95z"/>
<path d="M1320 1475 l0 -95 35 0 c32 0 35 2 35 30 0 29 1 30 50 30 48 0 51 -1
57 -30 4 -25 10 -30 34 -30 26 0 29 3 29 33 0 18 -5 38 -12 45 -9 9 -9 12 0
12 7 0 12 16 12 40 0 52 -19 60 -146 60 l-94 0 0 -95z m175 30 c0 -17 -8 -20
-52 -23 -51 -3 -53 -2 -53 23 0 25 2 26 53 23 44 -3 52 -6 52 -23z"/>
<path d="M1620 1550 c-24 -24 -25 -39 -6 -66 11 -15 30 -20 88 -24 56 -4 73
-8 73 -20 0 -11 -14 -16 -52 -18 -43 -2 -53 0 -53 12 0 12 -10 16 -35 16 -38
0 -44 -13 -21 -45 12 -16 29 -20 93 -23 95 -3 127 10 131 54 4 42 -14 54 -97
61 -50 4 -71 10 -71 19 0 10 15 14 50 14 28 0 50 -4 50 -10 0 -5 16 -10 35
-10 40 0 44 11 15 40 -17 17 -33 20 -100 20 -67 0 -83 -3 -100 -20z"/>
<path d="M1880 1476 l0 -96 35 0 c32 0 35 2 35 30 l0 30 65 0 c72 0 105 20
105 63 0 52 -20 62 -134 65 l-106 4 0 -96z m168 27 c3 -21 0 -23 -47 -23 -48
0 -51 2 -51 26 0 24 2 25 48 22 40 -3 47 -6 50 -25z"/>
<path d="M2160 1475 l0 -95 100 0 c93 0 100 1 100 20 0 17 -8 19 -67 22 -53 2
-68 6 -68 18 0 12 15 16 68 18 59 3 67 5 67 22 0 18 -7 20 -70 20 -56 0 -70 3
-70 15 0 12 14 15 70 15 63 0 70 2 70 20 0 19 -7 20 -100 20 l-100 0 0 -95z"/>
<path d="M2410 1475 l0 -95 100 0 c93 0 100 1 100 20 0 17 -8 19 -67 22 -53 2
-68 6 -68 18 0 12 15 16 68 18 59 3 67 5 67 22 0 18 -7 20 -71 20 -52 0 -70 3
-67 13 3 7 29 13 71 15 59 3 67 5 67 22 0 19 -7 20 -100 20 l-100 0 0 -95z"/>
<path d="M2660 1476 l0 -96 88 1 c48 0 103 6 122 12 l35 12 -3 70 c-2 38 -7
74 -13 80 -5 5 -59 12 -119 13 l-110 4 0 -96z m188 11 c4 -53 -11 -67 -69 -67
l-49 0 0 55 0 56 58 -3 57 -3 3 -38z"/>
<path d="M1098 1303 c17 -2 47 -2 65 0 17 2 3 4 -33 4 -36 0 -50 -2 -32 -4z"/>
<path d="M1298 1303 c23 -2 59 -2 80 0 20 2 1 4 -43 4 -44 0 -61 -2 -37 -4z"/>
<path d="M1430 1230 c0 -73 2 -80 20 -80 16 0 20 7 20 30 0 30 1 30 55 30 42
0 55 3 55 15 0 11 -13 15 -54 15 -49 0 -55 2 -59 23 -4 19 -4 19 -6 -5 -1 -26
1 -27 57 -31 l57 -3 -57 -2 c-57 -2 -58 -2 -58 -32 0 -16 -4 -30 -10 -30 -6 0
-10 30 -10 70 l0 70 69 0 c46 0 71 -4 74 -12 3 -8 6 -6 6 5 1 15 -9 17 -79 17
l-80 0 0 -80z"/>
<path d="M1600 1230 c0 -77 1 -80 23 -79 16 1 18 2 5 6 -15 4 -18 16 -18 75 0
58 3 69 15 64 8 -3 15 -1 15 4 0 6 -9 10 -20 10 -18 0 -20 -7 -20 -80z"/>
<path d="M1738 1303 c18 -2 45 -2 60 0 15 2 0 4 -33 4 -33 0 -45 -2 -27 -4z"/>
<path d="M1880 1230 c0 -73 2 -80 20 -80 18 0 20 7 20 80 0 73 -2 80 -20 80
-18 0 -20 -7 -20 -80z m30 0 c0 -40 -4 -70 -10 -70 -6 0 -10 30 -10 70 0 40 4
70 10 70 6 0 10 -30 10 -70z"/>
<path d="M1947 1303 c-4 -3 -7 -39 -7 -80 0 -66 2 -73 20 -73 18 0 20 7 20 62
l0 61 56 -61 c44 -49 62 -62 85 -62 l29 0 0 80 c0 73 -2 80 -20 80 -18 0 -20
-7 -20 -62 l0 -63 -56 63 c-52 58 -87 76 -107 55z m110 -70 l62 -68 1 68 c0
38 4 67 10 67 6 0 10 -30 10 -70 0 -68 -1 -70 -24 -70 -18 0 -40 17 -78 60
-29 33 -56 60 -60 60 -5 0 -8 -27 -8 -60 0 -33 -4 -60 -10 -60 -6 0 -10 30
-10 70 0 66 1 70 23 70 15 0 42 -21 84 -67z"/>
<path d="M2243 1298 c-18 -24 -75 -128 -69 -128 3 0 21 29 41 65 37 65 58 78
84 53 10 -11 11 -10 6 5 -8 20 -48 23 -62 5z"/>
<path d="M1206 1293 c7 -4 14 -17 17 -28 5 -16 5 -15 4 4 -1 14 -9 26 -17 28
-10 3 -11 2 -4 -4z"/>
<path d="M1675 1289 c-11 -16 -1 -19 13 -3 7 8 8 14 3 14 -5 0 -13 -5 -16 -11z"/>
<path d="M1031 1228 c0 -31 2 -59 7 -61 4 -3 6 16 4 41 -5 73 -10 82 -11 20z"/>
<path d="M1067 1273 c-9 -9 -9 -81 1 -86 4 -3 5 14 4 38 -4 39 -1 44 20 48 20
4 21 4 2 6 -11 0 -24 -2 -27 -6z"/>
<path d="M1173 1274 c15 -5 18 -14 15 -49 -2 -24 1 -40 5 -36 5 5 7 26 5 47
-2 30 -7 39 -23 41 -17 2 -18 1 -2 -3z"/>
<path d="M1633 1235 c0 -27 2 -38 4 -22 2 15 2 37 0 50 -2 12 -4 0 -4 -28z"/>
<path d="M1705 1269 c-11 -16 -1 -19 13 -3 7 8 8 14 3 14 -5 0 -13 -5 -16 -11z"/>
<path d="M1798 1273 c7 -3 16 -2 19 1 4 3 -2 6 -13 5 -11 0 -14 -3 -6 -6z"/>
<path d="M2256 1264 c-5 -14 -4 -15 9 -4 8 7 15 8 15 3 0 -5 7 -18 15 -29 14
-17 14 -15 0 14 -17 35 -30 40 -39 16z"/>
<path d="M2339 1215 c22 -39 27 -55 17 -55 -8 0 -16 7 -20 15 -8 21 -121 21
-129 1 -3 -8 -16 -16 -29 -19 -21 -4 -21 -4 -2 -6 12 0 27 6 34 14 8 10 31 15
65 15 38 0 55 -4 59 -15 5 -14 46 -22 46 -10 0 9 -62 115 -67 115 -3 0 9 -25
26 -55z"/>
<path d="M1828 1253 c6 -2 18 -2 25 0 6 3 1 5 -13 5 -14 0 -19 -2 -12 -5z"/>
<path d="M1290 1238 c0 -5 26 -9 58 -10 l57 -1 -60 -7 -60 -7 63 -1 c47 -2 62
1 62 12 0 10 -17 15 -60 18 -33 1 -60 0 -60 -4z"/>
<path d="M2237 1233 c-4 -3 -7 -12 -7 -20 0 -9 14 -12 48 -11 l47 1 -43 4
c-33 3 -42 8 -38 19 6 15 3 18 -7 7z"/>
<path d="M1218 1187 c-3 -19 -2 -25 4 -19 6 6 8 18 6 28 -3 14 -5 12 -10 -9z"/>
<path d="M1816 1194 c-6 -14 -4 -15 10 -4 13 12 17 11 25 -1 7 -11 9 -11 9 4
0 22 -36 23 -44 1z"/>
<path d="M1700 1190 c0 -5 5 -10 11 -10 5 0 7 5 4 10 -3 6 -8 10 -11 10 -2 0
-4 -4 -4 -10z"/>
<path d="M1670 1184 c0 -25 29 -35 97 -31 l68 3 -72 2 c-57 2 -74 6 -82 20 -6
9 -11 12 -11 6z"/>
<path d="M1108 1173 c12 -2 30 -2 40 0 9 3 -1 5 -23 4 -22 0 -30 -2 -17 -4z"/>
<path d="M1748 1173 c12 -2 30 -2 40 0 9 3 -1 5 -23 4 -22 0 -30 -2 -17 -4z"/>
<path d="M1093 1153 c20 -2 54 -2 75 0 20 2 3 4 -38 4 -41 0 -58 -2 -37 -4z"/>
<path d="M1268 1153 c7 -3 16 -2 19 1 4 3 -2 6 -13 5 -11 0 -14 -3 -6 -6z"/>
<path d="M860 1030 c0 -61 18 -67 22 -7 l3 42 24 -42 c14 -24 29 -43 33 -43 5
0 19 17 31 38 l22 37 3 -37 c5 -56 22 -46 22 12 0 61 -18 66 -50 15 -12 -19
-25 -35 -29 -35 -3 0 -15 16 -25 35 -11 21 -27 35 -38 35 -15 0 -18 -8 -18
-50z"/>
<path d="M1056 1064 c-20 -19 -21 -58 -2 -73 8 -7 36 -11 63 -9 l48 3 3 39 c2
24 -2 42 -10 47 -22 14 -86 10 -102 -7z m94 -34 c0 -23 -5 -31 -24 -36 -31 -7
-66 11 -66 35 0 26 9 31 52 31 36 0 38 -2 38 -30z"/>
<path d="M1185 1070 c-4 -6 5 -10 19 -10 24 0 26 -4 26 -40 0 -22 5 -40 10
-40 6 0 10 18 10 40 0 36 2 40 26 40 14 0 23 4 19 10 -3 6 -28 10 -55 10 -27
0 -52 -4 -55 -10z"/>
<path d="M1322 1071 c-8 -5 -12 -23 -10 -47 l3 -39 48 -3 c27 -2 55 2 63 9 17
14 18 61 2 77 -14 14 -86 16 -106 3z m96 -42 c3 -22 -2 -28 -23 -33 -43 -11
-65 1 -65 35 0 29 1 30 43 27 37 -3 42 -6 45 -29z"/>
<path d="M1490 1030 l0 -50 50 0 c28 0 50 3 50 8 0 4 -18 6 -40 4 -32 -3 -40
-1 -40 12 0 12 10 16 35 16 19 0 35 5 35 10 0 6 -16 10 -35 10 -19 0 -35 5
-35 10 0 6 18 10 40 10 22 0 40 5 40 10 0 6 -22 10 -50 10 l-50 0 0 -50z"/>
<path d="M1652 1071 c-8 -5 -12 -17 -10 -27 2 -15 13 -20 46 -22 28 -2 42 -7
39 -15 -5 -17 -45 -21 -63 -6 -17 14 -33 4 -17 -12 6 -6 30 -9 54 -7 34 2 45
7 47 22 5 24 -14 36 -55 36 -18 0 -33 5 -33 11 0 8 15 10 45 7 25 -3 45 -2 45
2 0 19 -73 27 -98 11z"/>
<path d="M1781 1066 c-7 -8 -11 -30 -9 -48 3 -32 5 -33 52 -36 27 -2 53 1 59
7 17 17 1 24 -23 11 -12 -6 -33 -9 -46 -6 -19 5 -24 13 -24 37 l0 32 50 -5
c41 -4 48 -3 39 8 -15 18 -83 18 -98 0z"/>
<path d="M1922 1071 c-8 -5 -12 -23 -10 -47 l3 -39 55 0 55 0 3 39 c4 45 -7
56 -58 56 -19 0 -41 -4 -48 -9z m96 -38 c4 -27 -30 -47 -64 -39 -19 5 -24 13
-24 37 0 29 1 30 43 27 34 -2 43 -7 45 -25z"/>
<path d="M2066 1064 c-19 -19 -20 -44 -3 -68 10 -13 24 -17 62 -14 l50 3 3 39
c2 24 -2 42 -10 47 -22 14 -86 10 -102 -7z m94 -34 c0 -23 -5 -31 -24 -36 -31
-7 -66 11 -66 35 0 26 9 31 52 31 36 0 38 -2 38 -30z"/>
<path d="M2195 1070 c-4 -6 5 -10 19 -10 24 0 26 -4 26 -40 0 -22 5 -40 10
-40 6 0 10 18 10 40 0 36 3 40 25 40 14 0 25 5 25 10 0 6 -24 10 -54 10 -30 0
-58 -4 -61 -10z"/>
<path d="M2320 1030 l0 -50 53 1 c50 2 51 2 13 8 -55 8 -60 31 -7 31 23 0 41
5 41 10 0 6 -18 10 -40 10 -22 0 -40 5 -40 10 0 6 18 10 40 10 22 0 40 5 40
10 0 6 -22 10 -50 10 l-50 0 0 -50z"/>
<path d="M2440 1030 c0 -27 5 -50 10 -50 6 0 10 7 10 15 0 11 11 15 40 15 29
0 40 -4 40 -15 0 -8 4 -15 9 -15 12 0 10 84 -3 92 -6 4 -32 8 -58 8 l-48 0 0
-50z m100 15 c0 -11 -11 -15 -40 -15 -29 0 -40 4 -40 15 0 11 11 15 40 15 29
0 40 -4 40 -15z"/>
</g>
</svg>
